<svg width="33" height="26" viewBox="0 0 33 26" fill="none" xmlns="http://www.w3.org/2000/svg">
<path d="M9.46931 2.07156H0.5V0.704529H19.0976L10.1528 15.8599H19.0976V17.2269H0.5L9.46931 2.07156Z" fill="#8A817C"/>
<path d="M27.1375 24.0523C28.3177 24.0523 29.252 23.5704 29.9453 22.6115C30.6387 21.6526 31.0862 20.4872 31.2927 19.1201H32.7581C32.5368 20.8216 31.9811 22.2673 31.0812 23.4622C30.5797 24.1211 30.0043 24.6178 29.3601 24.9472C28.7307 25.262 28.0325 25.4685 27.2604 25.5619C26.5031 25.6553 25.5148 25.7045 24.2854 25.7045C22.5545 25.7045 21.1481 25.5373 20.0614 25.2079C18.9894 24.8636 18.0698 24.3031 17.2978 23.531C15.7882 22.0214 15.0309 19.9413 15.0309 17.3007C15.0309 14.5175 15.7095 12.4472 17.0618 11.095C17.942 10.2147 18.9255 9.62958 20.0122 9.34929C21.0989 9.06408 22.5201 8.92639 24.2854 8.92639C25.9081 8.92639 27.2211 9.04441 28.2292 9.28044C29.252 9.50173 30.0879 9.97871 30.7321 10.7212C31.2681 11.3359 31.6861 12.0735 31.9811 12.939C32.2811 13.8044 32.4532 14.6601 32.5024 15.5108H31.155C31.0911 14.8027 30.919 14.0798 30.6338 13.3373C30.3682 12.58 29.9404 11.9358 29.3601 11.3998C28.7799 10.8491 28.0374 10.5737 27.1424 10.5737C26.2917 10.5737 25.6082 10.9425 25.0869 11.685C24.6296 12.2653 24.2854 13.1258 24.0494 14.2568C23.8773 15.1223 23.7887 16.1353 23.7887 17.3007C23.7887 19.1398 24.01 20.6298 24.4477 21.7608C25.0132 23.2852 25.9131 24.0523 27.1375 24.0523Z" fill="#8A817C"/>
</svg>
