<svg width="33" height="26" viewBox="0 0 33 26" fill="none" xmlns="http://www.w3.org/2000/svg">
<path d="M8.96931 1.86703H0V0.5H18.5976L9.65283 15.6554H18.5976V17.0224H0L8.96931 1.86703Z" fill="#8A817C"/>
<path d="M26.6375 23.8477C27.8177 23.8477 28.752 23.3658 29.4453 22.407C30.1387 21.4481 30.5862 20.2826 30.7927 18.9156H32.2581C32.0368 20.617 31.4811 22.0627 30.5812 23.2577C30.0797 23.9166 29.5043 24.4132 28.8601 24.7427C28.2307 25.0574 27.5325 25.264 26.7604 25.3574C26.0031 25.4508 25.0148 25.5 23.7854 25.5C22.0545 25.5 20.6481 25.3328 19.5614 25.0033C18.4894 24.6591 17.5698 24.0985 16.7978 23.3265C15.2882 21.8169 14.5309 19.7368 14.5309 17.0962C14.5309 14.3129 15.2095 12.2427 16.5618 10.8904C17.442 10.0102 18.4255 9.42505 19.5122 9.14476C20.5989 8.85955 22.0201 8.72186 23.7854 8.72186C25.4081 8.72186 26.7211 8.83988 27.7292 9.07592C28.752 9.2972 29.5879 9.77418 30.2321 10.5167C30.7681 11.1314 31.1861 11.869 31.4811 12.7345C31.7811 13.5999 31.9532 14.4555 32.0024 15.3062H30.655C30.5911 14.5981 30.419 13.8753 30.1338 13.1328C29.8682 12.3755 29.4404 11.7313 28.8601 11.1953C28.2799 10.6446 27.5374 10.3692 26.6424 10.3692C25.7917 10.3692 25.1082 10.738 24.5869 11.4805C24.1296 12.0608 23.7854 12.9213 23.5494 14.0523C23.3773 14.9178 23.2887 15.9308 23.2887 17.0962C23.2887 18.9353 23.51 20.4252 23.9477 21.5562C24.5132 23.0806 25.4131 23.8477 26.6375 23.8477Z" fill="#8A817C"/>
</svg>
