<svg width="163" height="29" viewBox="0 0 163 29" fill="none" xmlns="http://www.w3.org/2000/svg">
<path d="M15.82 2.72906H0.62V0.409056H32.14L16.98 26.0891H32.14V28.4091H0.62L15.82 2.72906ZM44.5691 0.409056H56.2491L68.6491 28.4091H53.5291L49.3291 19.1291H40.5291L36.9291 28.4091H34.0091L44.5691 0.409056ZM48.2091 16.6891L44.5691 8.56906L41.4091 16.6891H48.2091ZM87.3509 25.8091C89.3509 25.8091 90.9376 24.9957 92.1109 23.3691C93.2843 21.7424 94.0443 19.7691 94.3909 17.4491H96.8709C96.4976 20.3291 95.5509 22.7824 94.0309 24.8091C93.1776 25.9291 92.2043 26.7691 91.1109 27.3291C90.0443 27.8624 88.8576 28.2091 87.5509 28.3691C86.2709 28.5291 84.5909 28.6091 82.5109 28.6091C79.5776 28.6091 77.1909 28.3291 75.3509 27.7691C73.5376 27.1824 71.9776 26.2357 70.6709 24.9291C68.1109 22.3691 66.8309 18.8491 66.8309 14.3691C66.8309 9.64906 67.9776 6.14239 70.2709 3.84906C71.7643 2.35572 73.4309 1.36906 75.2709 0.889057C77.1109 0.409057 79.5243 0.169056 82.5109 0.169056C85.2576 0.169056 87.4843 0.369056 89.1909 0.769056C90.9243 1.14239 92.3376 1.95572 93.4309 3.20906C94.3376 4.24906 95.0443 5.50239 95.5509 6.96906C96.0576 8.43572 96.3509 9.88906 96.4309 11.3291H94.1509C94.0443 10.1291 93.7509 8.90239 93.2709 7.64906C92.8176 6.36906 92.0976 5.27572 91.1109 4.36906C90.1243 3.43572 88.8709 2.96906 87.3509 2.96906C85.9109 2.96906 84.7509 3.59572 83.8709 4.84906C83.0976 5.83572 82.5109 7.28906 82.1109 9.20906C81.8176 10.6757 81.6709 12.3957 81.6709 14.3691C81.6709 17.4891 82.0443 20.0091 82.7909 21.9291C83.7509 24.5157 85.2709 25.8091 87.3509 25.8091ZM119.343 25.8091C121.343 25.8091 122.93 24.9957 124.103 23.3691C125.276 21.7424 126.036 19.7691 126.383 17.4491H128.863C128.49 20.3291 127.543 22.7824 126.023 24.8091C125.17 25.9291 124.196 26.7691 123.103 27.3291C122.036 27.8624 120.85 28.2091 119.543 28.3691C118.263 28.5291 116.583 28.6091 114.503 28.6091C111.57 28.6091 109.183 28.3291 107.343 27.7691C105.53 27.1824 103.97 26.2357 102.663 24.9291C100.103 22.3691 98.8231 18.8491 98.8231 14.3691C98.8231 9.64906 99.9698 6.14239 102.263 3.84906C103.756 2.35572 105.423 1.36906 107.263 0.889057C109.103 0.409057 111.516 0.169056 114.503 0.169056C117.25 0.169056 119.476 0.369056 121.183 0.769056C122.916 1.14239 124.33 1.95572 125.423 3.20906C126.33 4.24906 127.036 5.50239 127.543 6.96906C128.05 8.43572 128.343 9.88906 128.423 11.3291H126.143C126.036 10.1291 125.743 8.90239 125.263 7.64906C124.81 6.36906 124.09 5.27572 123.103 4.36906C122.116 3.43572 120.863 2.96906 119.343 2.96906C117.903 2.96906 116.743 3.59572 115.863 4.84906C115.09 5.83572 114.503 7.28906 114.103 9.20906C113.81 10.6757 113.663 12.3957 113.663 14.3691C113.663 17.4891 114.036 20.0091 114.783 21.9291C115.743 24.5157 117.263 25.8091 119.343 25.8091ZM138.124 0.409056H149.804L162.204 28.4091H147.084L142.884 19.1291H134.084L130.484 28.4091H127.564L138.124 0.409056ZM141.764 16.6891L138.124 8.56906L134.964 16.6891H141.764Z" fill="#BCB8B1"/>
</svg>
