<svg width="195" height="35" viewBox="0 0 195 35" fill="none" xmlns="http://www.w3.org/2000/svg">
<path d="M165.349 0.399994H179.365L194.245 34H176.101L171.061 22.864H160.501L156.181 34H152.677L165.349 0.399994ZM169.717 19.936L165.349 10.192L161.557 19.936H169.717Z" fill="#8A817C"/>
<path d="M142.812 30.88C145.212 30.88 147.116 29.904 148.524 27.952C149.932 26 150.844 23.632 151.26 20.848H154.236C153.788 24.304 152.652 27.248 150.828 29.68C149.804 31.024 148.636 32.032 147.324 32.704C146.044 33.344 144.62 33.76 143.052 33.952C141.516 34.144 139.5 34.24 137.004 34.24C133.484 34.24 130.62 33.904 128.412 33.232C126.236 32.528 124.364 31.392 122.796 29.824C119.724 26.752 118.188 22.528 118.188 17.152C118.188 11.488 119.564 7.28 122.316 4.528C124.108 2.736 126.108 1.552 128.316 0.976C130.524 0.4 133.42 0.112 137.004 0.112C140.3 0.112 142.972 0.351999 145.02 0.831999C147.1 1.28 148.796 2.256 150.108 3.76C151.196 5.008 152.044 6.512 152.652 8.272C153.26 10.032 153.612 11.776 153.708 13.504H150.972C150.844 12.064 150.492 10.592 149.916 9.088C149.372 7.552 148.508 6.24 147.324 5.152C146.14 4.032 144.636 3.472 142.812 3.472C141.084 3.472 139.692 4.224 138.636 5.728C137.708 6.912 137.004 8.656 136.524 10.96C136.172 12.72 135.996 14.784 135.996 17.152C135.996 20.896 136.444 23.92 137.34 26.224C138.492 29.328 140.316 30.88 142.812 30.88Z" fill="#8A817C"/>
<path d="M104.421 30.88C106.821 30.88 108.725 29.904 110.133 27.952C111.541 26 112.453 23.632 112.869 20.848H115.845C115.397 24.304 114.261 27.248 112.437 29.68C111.413 31.024 110.245 32.032 108.933 32.704C107.653 33.344 106.229 33.76 104.661 33.952C103.125 34.144 101.109 34.24 98.6131 34.24C95.0931 34.24 92.2291 33.904 90.0211 33.232C87.8451 32.528 85.9731 31.392 84.4051 29.824C81.3331 26.752 79.7971 22.528 79.7971 17.152C79.7971 11.488 81.1731 7.28 83.9251 4.528C85.7171 2.736 87.7171 1.552 89.9251 0.976C92.1331 0.4 95.0291 0.112 98.6131 0.112C101.909 0.112 104.581 0.351999 106.629 0.831999C108.709 1.28 110.405 2.256 111.717 3.76C112.805 5.008 113.653 6.512 114.261 8.272C114.869 10.032 115.221 11.776 115.317 13.504H112.581C112.453 12.064 112.101 10.592 111.525 9.088C110.981 7.552 110.117 6.24 108.933 5.152C107.749 4.032 106.245 3.472 104.421 3.472C102.693 3.472 101.301 4.224 100.245 5.728C99.3171 6.912 98.6131 8.656 98.1331 10.96C97.7811 12.72 97.6051 14.784 97.6051 17.152C97.6051 20.896 98.0531 23.92 98.9491 26.224C100.101 29.328 101.925 30.88 104.421 30.88Z" fill="#8A817C"/>
<path d="M53.0829 0.399994H67.0989L81.9789 34H63.8349L58.7949 22.864H48.2349L43.9149 34H40.4109L53.0829 0.399994ZM57.4509 19.936L53.0829 10.192L49.2909 19.936H57.4509Z" fill="#8A817C"/>
<path d="M18.584 3.184H0.343994V0.399994H38.168L19.976 31.216H38.168V34H0.343994L18.584 3.184Z" fill="#8A817C"/>
</svg>
