<svg width="21" height="21" viewBox="0 0 21 21" fill="none" xmlns="http://www.w3.org/2000/svg">
<path d="M11.2627 0.417394V1.13436C10.8125 1.18438 10.4873 1.29276 10.2956 1.46783C10.1038 1.6429 10.0038 1.89301 10.0038 2.23482C10.0038 2.80172 10.4123 3.76879 11.2377 5.13603L12.5966 7.40364L14.3223 4.96929C14.7641 4.34403 15.0809 3.81047 15.281 3.36862C15.4811 2.92677 15.5811 2.53494 15.5811 2.20147C15.5811 1.82631 15.4727 1.55954 15.2477 1.3928C15.0226 1.22606 14.6724 1.1427 14.2056 1.12602V0.409058H20.2581V1.1427C19.8162 1.25108 19.3744 1.50118 18.9159 1.90135C18.4573 2.30151 17.8071 3.09351 16.9484 4.27734L13.5469 8.93761L18.8492 17.7413C19.1326 18.2081 19.3744 18.575 19.5828 18.8501C19.7912 19.1252 19.9746 19.3169 20.133 19.442C20.2914 19.567 20.4748 19.6504 20.6666 19.6921V20.4091H10.6707V19.6921C11.1043 19.6504 11.4211 19.5504 11.6378 19.3753C11.8546 19.2002 11.963 18.9501 11.963 18.6083C11.963 18.0748 11.6295 17.2411 10.9542 16.1156L8.98671 12.8142L6.59405 16.1823C5.91043 17.1494 5.56862 17.933 5.56862 18.5249C5.56862 19.2086 6.01881 19.5921 6.92752 19.6838V20.4007H0.875V19.6838C1.29184 19.5587 1.73369 19.2669 2.20055 18.8084C2.66741 18.3499 3.35103 17.4995 4.25974 16.2407L7.9196 11.1552L3.38438 3.56871C3.10926 3.11852 2.85916 2.72669 2.63407 2.38488C2.40897 2.04307 2.21723 1.79297 2.05883 1.62623C1.90043 1.4595 1.76704 1.34278 1.65032 1.27609C1.53361 1.20939 1.40856 1.15937 1.26683 1.12602V0.409058H11.2627V0.417394ZM14.8058 19.1335H17.682L7.16095 1.7096H4.28475L14.8058 19.1335Z" fill="#BCB8B1"/>
</svg>
